<svg width="55" height="47" viewBox="0 0 55 47" fill="none" xmlns="http://www.w3.org/2000/svg">
<g filter="url(#filter0_d_23_982)">
<path d="M39.6288 8.17716C37.3976 7.17093 35.006 6.42721 32.5051 6.0043C32.4828 6.00003 32.4597 6.00278 32.4391 6.01219C32.4184 6.02159 32.4012 6.03718 32.3898 6.0568C32.0836 6.59491 31.7424 7.29635 31.5032 7.8505C28.8507 7.45419 26.1541 7.45419 23.5016 7.8505C23.2352 7.23635 22.9348 6.63753 22.6018 6.0568C22.5905 6.03694 22.5734 6.021 22.5528 6.0111C22.5323 6.0012 22.5092 5.99781 22.4866 6.00139C19.9871 6.42429 17.5955 7.16802 15.3628 8.1757C15.3436 8.18375 15.3273 8.19749 15.3162 8.21507C10.778 14.8868 9.53405 21.3936 10.1451 27.8189C10.1468 27.8346 10.1517 27.8498 10.1594 27.8636C10.1672 27.8774 10.1777 27.8895 10.1903 27.8991C12.8391 29.8276 15.7935 31.2966 18.9298 32.2448C18.9517 32.2515 18.9751 32.2515 18.9969 32.2447C19.0188 32.238 19.0381 32.2248 19.0523 32.2069C19.7272 31.3043 20.3253 30.3467 20.8402 29.3442C20.8473 29.3305 20.8514 29.3155 20.8523 29.3C20.8531 29.2846 20.8506 29.2692 20.8449 29.2548C20.8392 29.2404 20.8305 29.2274 20.8194 29.2167C20.8083 29.2059 20.795 29.1977 20.7804 29.1926C19.8383 28.8378 18.9256 28.4097 18.0505 27.9122C18.0347 27.9032 18.0215 27.8905 18.0119 27.8751C18.0023 27.8598 17.9967 27.8423 17.9955 27.8242C17.9944 27.8061 17.9977 27.7881 18.0053 27.7716C18.0128 27.7552 18.0244 27.7408 18.0388 27.7299C18.2225 27.5943 18.4063 27.4528 18.5813 27.3114C18.597 27.2987 18.616 27.2906 18.6361 27.288C18.6562 27.2854 18.6766 27.2885 18.695 27.2968C24.4217 29.8692 30.6239 29.8692 36.2835 27.2968C36.302 27.288 36.3226 27.2845 36.343 27.2868C36.3633 27.2892 36.3826 27.2972 36.3987 27.3099C36.5737 27.4528 36.756 27.5943 36.9412 27.7299C36.9558 27.7406 36.9675 27.7547 36.9753 27.771C36.9831 27.7874 36.9867 27.8054 36.9858 27.8234C36.9849 27.8415 36.9796 27.859 36.9703 27.8745C36.961 27.89 36.948 27.903 36.9324 27.9122C36.0604 28.4139 35.1533 28.8382 34.201 29.1911C34.1864 29.1964 34.1731 29.2048 34.162 29.2157C34.1508 29.2265 34.1421 29.2397 34.1365 29.2542C34.1308 29.2686 34.1283 29.2842 34.1291 29.2997C34.13 29.3152 34.1341 29.3304 34.1413 29.3442C34.6662 30.3461 35.2671 31.2998 35.9277 32.2054C35.9414 32.224 35.9605 32.2379 35.9825 32.2452C36.0044 32.2525 36.028 32.2529 36.0502 32.2462C39.1918 31.3007 42.1511 29.831 44.8028 27.8991C44.8158 27.89 44.8266 27.8783 44.8347 27.8647C44.8427 27.8512 44.8478 27.836 44.8495 27.8203C45.5786 20.3918 43.6274 13.9374 39.674 8.21799C39.6643 8.1994 39.6483 8.18491 39.6288 8.17716ZM21.6962 23.9063C19.9725 23.9063 18.5507 22.3474 18.5507 20.4355C18.5507 18.5223 19.9448 16.9648 21.6962 16.9648C23.4607 16.9648 24.8694 18.5354 24.8417 20.4355C24.8417 22.3488 23.4476 23.9063 21.6962 23.9063V23.9063ZM33.3261 23.9063C31.6009 23.9063 30.1805 22.3474 30.1805 20.4355C30.1805 18.5223 31.5732 16.9648 33.3261 16.9648C35.0906 16.9648 36.4993 18.5354 36.4716 20.4355C36.4716 22.3488 35.0921 23.9063 33.3261 23.9063V23.9063Z" fill="#FAFAFA"/>
</g>
<defs>
<filter id="filter0_d_23_982" x="0" y="0" width="55" height="46.251" filterUnits="userSpaceOnUse" color-interpolation-filters="sRGB">
<feFlood flood-opacity="0" result="BackgroundImageFix"/>
<feColorMatrix in="SourceAlpha" type="matrix" values="0 0 0 0 0 0 0 0 0 0 0 0 0 0 0 0 0 0 127 0" result="hardAlpha"/>
<feOffset dy="4"/>
<feGaussianBlur stdDeviation="5"/>
<feComposite in2="hardAlpha" operator="out"/>
<feColorMatrix type="matrix" values="0 0 0 0 0 0 0 0 0 0 0 0 0 0 0 0 0 0 0.8 0"/>
<feBlend mode="normal" in2="BackgroundImageFix" result="effect1_dropShadow_23_982"/>
<feBlend mode="normal" in="SourceGraphic" in2="effect1_dropShadow_23_982" result="shape"/>
</filter>
</defs>
</svg>
