<svg width="85" height="98" viewBox="0 0 85 98" fill="none" xmlns="http://www.w3.org/2000/svg">
<g filter="url(#filter0_d_144_30)">
<path d="M10.9954 0C5.87662 0 4 1.90397 4 7.04498V69.1504C4 69.7382 4.03072 70.2782 4.0754 70.7788C4.20665 71.9066 4.20665 73.0062 5.25108 74.2352C5.35161 74.3814 6.40162 75.1577 6.40162 75.1577C6.96852 75.4361 7.35948 75.6414 7.99898 75.9029L39.0386 88.9973C40.6387 89.7313 41.3257 90.0407 42.4874 89.9957H42.5014C43.6771 90.0407 44.3641 89.7341 45.9642 88.9973L76.9871 75.9029C77.6433 75.6414 78.0175 75.4333 78.5984 75.1577C78.5984 75.1577 79.6484 74.3505 79.7489 74.2352C80.7961 73.0062 80.7961 71.9066 80.9246 70.7788C80.9693 70.281 81 69.741 81 69.1673V7.04779C81 1.90678 79.1094 0.00281237 74.0046 0.00281237L10.9954 0ZM60.7258 11.6573H63.2531C67.4727 11.6573 69.5392 13.7243 69.5392 18.0329V25.0779H64.4204V18.3085C64.4204 16.9333 63.7949 16.3033 62.4684 16.3033H61.5971C60.2315 16.3033 59.606 16.9333 59.606 18.3085V40.1015C59.606 41.4768 60.2315 42.1067 61.5971 42.1067H62.5717C63.8786 42.1067 64.5042 41.4768 64.5042 40.1015V32.3085H69.623V40.3518C69.623 44.6407 67.5314 46.7528 63.2978 46.7528H60.7258C56.4783 46.7528 54.395 44.6266 54.395 40.3518V18.0694C54.395 13.7806 56.4755 11.6544 60.7258 11.6544V11.6573ZM15.3435 11.9554H26.9355V16.7448H20.5489V26.4981H26.7037V31.2763H20.5489V41.6736H27.0249V46.4659H15.3435V11.9554ZM29.5522 11.9554H37.7289C41.9596 11.9554 44.0541 14.0787 44.0541 18.3676V27.5387C44.0541 31.8275 41.9568 33.9396 37.7289 33.9396H34.7771V46.4631H29.5522V11.9554ZM46.411 11.9554H51.6164V46.4659H46.411V11.9554ZM34.7603 16.5958V29.3077H36.9134C38.2232 29.3077 38.8487 28.6664 38.8487 27.2856V18.615C38.8487 17.2398 38.2232 16.593 36.9134 16.593L34.7603 16.5958ZM20.4037 54.6639H21.1744L21.3503 54.6949H21.6296L21.7748 54.7399H21.92L22.0513 54.7821L22.1965 54.813L22.311 54.8439L22.5707 54.903L22.7187 54.9452L22.8192 54.9761L22.9337 55.0211L23.079 55.0661L23.1795 55.1083L23.3275 55.1674L23.4587 55.2264L23.5732 55.2967L23.7045 55.3558L23.805 55.4261L23.953 55.502L24.0675 55.5723L24.182 55.6314L24.2965 55.7186L24.4166 55.7945L24.5171 55.8817L24.8662 56.1489L24.7768 56.2642L24.6763 56.3654L24.587 56.4695L24.4864 56.5848L24.4166 56.686L24.3272 56.7901L24.2267 56.8913L24.1373 57.0067L24.0675 57.1079L23.9642 57.2288L23.8776 57.3301L23.7771 57.4454L23.6877 57.5494L23.6179 57.6647L23.5146 57.766L23.428 57.8869L23.3275 57.9882L23.2381 58.0894L23.1376 58.0191L23.0231 57.915L22.903 57.8447L22.688 57.6985L22.5567 57.6226L22.4367 57.5523L22.3054 57.4763L22.2049 57.4173L22.0904 57.361L21.8558 57.271L21.7106 57.2457L21.5961 57.2148L21.4648 57.1838L21.3168 57.1529L21.1716 57.1388H21.0264L20.8561 57.1079H20.5768L20.4316 57.122H20.2864L20.1412 57.167L20.0267 57.1979L19.8954 57.2429L19.7642 57.2682L19.6441 57.3273L19.4989 57.3863L19.2978 57.5326L19.1777 57.6029L19.0772 57.6929L18.9766 57.7632L18.8733 57.8532L18.8035 57.9544L18.6834 58.0557L18.5382 58.261L18.4684 58.3763L18.4097 58.5085L18.3399 58.6125L18.2645 58.7447L18.2199 58.8769L18.164 58.9922L18.1193 59.1384L18.1054 59.2847L18.0635 59.4197L18.0327 59.5659V59.7121L18.0188 59.8584V60.1959L18.0327 60.3421V60.4574L18.0467 60.6037L18.0718 60.7358L18.1165 60.8512L18.1305 61.0002L18.1752 61.1155L18.2171 61.2168L18.2757 61.363L18.3511 61.5092L18.407 61.6133L18.5522 61.8467L18.6415 61.962L18.7113 62.0661L18.8314 62.1533L18.9012 62.2545L19.0018 62.3445L19.2364 62.5217L19.3369 62.5779L19.4514 62.6539L19.5854 62.7129L19.7306 62.7692L19.8312 62.8282L20.1216 62.9154L20.2529 62.9295L20.3981 62.9745L20.5433 62.9885H21.1688L21.3448 62.9745H21.476L21.624 62.9154L21.7692 62.9014L21.9144 62.8592L22.0289 62.8282L22.1602 62.7692L22.2747 62.7129L22.4059 62.6539L22.4953 62.5948L22.6098 62.5245V61.2196H20.5572V59.1272H25.1957V63.8154L25.0952 63.8857L24.9947 63.9729L24.8913 64.0488L24.7768 64.136L24.6624 64.1951L24.5618 64.2851L24.3272 64.4313L24.182 64.5016L23.9502 64.6478L23.8022 64.7069L23.6877 64.7632L23.5565 64.8222L23.2661 64.9375L23.1516 64.9966L22.8863 65.0838L22.755 65.1147L22.6238 65.1597L22.4786 65.2047L22.3641 65.23L21.9284 65.32L21.7944 65.3341L21.5039 65.365L21.3448 65.3791L21.1995 65.3903L21.0404 65.4044H20.3143L20.1691 65.3791H20.0239L19.8786 65.3481H19.7474L19.6022 65.3031L19.1777 65.2159L19.0632 65.1709L18.932 65.1569L18.7867 65.0978L18.5215 65.0106L18.2617 64.8953L18.1165 64.8363L18.016 64.7772L17.8708 64.721L17.7675 64.631L17.6222 64.5747L17.5357 64.4988L17.4212 64.4285L17.1866 64.2513L17.0721 64.1754L16.9827 64.0882L16.8682 63.9982L16.6783 63.8098L16.5778 63.7198L16.4912 63.6185L16.3879 63.5145L16.3181 63.3992L16.2287 63.312L16.1589 63.191L16.0696 63.0757L15.9997 62.9745L15.9243 62.8592L15.8545 62.7242L15.7959 62.6089L15.7372 62.4767L15.6814 62.3614L15.5669 62.0942L15.5222 61.993L15.4636 61.8608L15.4329 61.7286L15.4077 61.6133L15.377 61.4671L15.3323 61.3321L15.3016 61.1858L15.2876 61.0705L15.2625 60.9243L15.2318 60.6627L15.2011 60.3702V59.594L15.2318 59.445V59.2987L15.2765 59.1525V59.0062L15.3184 58.8741L15.363 58.7278L15.4217 58.4663L15.4636 58.32L15.5083 58.1878L15.6842 57.7913L15.74 57.676L15.7987 57.5438L15.8741 57.4088L15.9299 57.2935L16.0053 57.1923L16.1505 56.956L16.2371 56.8407L16.3265 56.7395L16.3963 56.6242L16.5862 56.4329L16.6728 56.3289L16.7761 56.2276L16.8627 56.1264L16.9827 56.0364L17.1838 55.8592L17.2983 55.772L17.4184 55.6961L17.5189 55.6089L17.6334 55.533L17.7535 55.4767L17.8847 55.4008L18.03 55.3305L18.1305 55.2545L18.2757 55.1983L18.407 55.1392L18.5382 55.0689L18.6583 55.038L18.8035 54.993L18.918 54.9339L19.0493 54.9086L19.1805 54.8636L19.3257 54.8327L19.4458 54.7877L19.591 54.7568H19.7362L19.8675 54.7146H20.0127L20.1579 54.6836H20.2892L20.4037 54.6639ZM65.0432 54.6949H65.8139L65.9898 54.7258H66.2663L66.4115 54.768H66.5707L66.7159 54.813L66.9756 54.8721L67.1208 54.903L67.2521 54.9283L67.4001 54.9733L67.5314 55.0183L67.6458 55.0492L67.7771 55.0914L67.9223 55.1364L68.0368 55.1955L68.182 55.2517L68.3161 55.3108L68.4473 55.3867L68.5479 55.443L68.6791 55.5189L68.8104 55.5752L68.9304 55.6511L69.0617 55.7383L69.1622 55.8142L69.3968 55.9914L69.5113 56.0617L69.4219 56.177L69.3521 56.2979L69.2655 56.3992L69.1762 56.5145L69.1064 56.6467L69.031 56.7676L68.9444 56.8688L68.855 56.9841L68.7852 57.1051L68.6959 57.2204L68.626 57.3216L68.5367 57.4369L68.4669 57.5719L68.3775 57.6872L68.2909 57.7885L68.2016 57.9038L68.1318 58.0247L68.0173 57.9347L67.8832 57.8644L67.7827 57.7885L67.6682 57.7182L67.5369 57.6591L67.4169 57.5832L67.2856 57.5269L67.1851 57.4679L67.0399 57.4116L66.9365 57.3526L66.822 57.3076L66.5623 57.2204L66.2719 57.1304L65.8363 57.0432L65.691 57.0291L65.4257 56.9982H65.1214L64.9622 57.0291L64.817 57.0601L64.6857 57.091L64.5712 57.1473L64.4679 57.2063L64.3534 57.3076L64.2668 57.4398L64.2082 57.5747V57.9235L64.2836 58.0838L64.3394 58.1738L64.4288 58.261L64.574 58.3369L64.6885 58.4072L64.8198 58.4663L64.965 58.5225L65.1549 58.5675L65.2554 58.6125L65.3755 58.6434L65.5207 58.6744L65.6352 58.7166L65.7664 58.7475L65.9256 58.7925L66.0708 58.8375L66.23 58.8797L66.3892 58.9106L66.5204 58.9556L66.6796 58.9978L66.8248 59.0287L66.9561 59.0597L67.3945 59.1919L67.509 59.2369L67.6542 59.2819L67.7855 59.3381L67.9307 59.414L68.2211 59.5293L68.3524 59.6053L68.5869 59.7515L68.802 59.9118L68.936 59.999L69.0366 60.1003L69.1371 60.2212L69.2404 60.3224L69.3102 60.4237L69.4136 60.5699L69.4834 60.674L69.542 60.8202L69.5979 60.9074L69.6425 61.0536L69.6872 61.1746L69.7179 61.3068L69.7738 61.5992L69.7878 61.7455L69.8017 61.8777V62.2292L69.7878 62.3895L69.757 62.682L69.7263 62.8282L69.6844 62.9604L69.6537 63.1067L69.609 63.2529L69.5672 63.3851L69.5085 63.4892L69.4499 63.6213L69.38 63.7366L69.2907 63.8407L69.1455 64.0741L68.9695 64.2794L68.869 64.3497L68.7545 64.4538L68.6651 64.541L68.5506 64.6282L68.4362 64.6872L68.3217 64.7772L68.1876 64.8475L67.9279 64.9797L67.7827 65.0388L67.6514 65.095L67.5062 65.14L67.375 65.185L67.2549 65.2159L66.9645 65.2722L66.8639 65.3031L66.7187 65.3341H66.5735L66.4422 65.365H66.297L66.1518 65.3959H65.1158L64.6801 65.3509L64.5349 65.32L64.4037 65.3059L64.1132 65.2497L63.9541 65.2188L63.8228 65.1878L63.6776 65.1428L63.5296 65.1119L63.3983 65.0697L63.2531 65.0247L63.1079 64.9656L62.9934 64.9235L62.8482 64.8785L62.703 64.8194L62.5996 64.7632L62.4544 64.7182L62.3399 64.6422L62.1947 64.586L62.0802 64.51L61.9769 64.4397L61.8317 64.3638L61.7311 64.3075L61.6167 64.2176L61.5022 64.1472L61.3821 64.0573L61.2815 63.9701L61.167 63.8801L61.0637 63.8098L60.9492 63.7057L61.0386 63.5904L61.1391 63.4892L61.2257 63.3851L61.329 63.2698L61.3988 63.1685L61.4882 63.0532L61.5887 62.9492L61.6753 62.8479L61.7786 62.7326L61.8484 62.6286L61.9518 62.5273L62.0383 62.412L62.1277 62.308L62.2282 62.1927L62.298 62.0914L62.4014 61.9873L62.5019 61.872L62.6024 61.962L62.7365 62.0492L62.837 62.1364L62.9822 62.2123L63.0828 62.2883L63.214 62.3755L63.3341 62.4514L63.4653 62.5076L63.5659 62.5836L63.6971 62.6258L63.8423 62.6848L63.9624 62.7439L64.0937 62.7861L64.2082 62.8451L64.3534 62.8901L64.4846 62.9323L64.6299 62.9773L64.7751 62.9914L64.9091 63.0364L65.0543 63.0504H65.2135L65.3448 63.0926H66.1295L66.2607 63.0673L66.4059 63.0364L66.5065 63.0223L66.6266 62.9773L66.7271 62.9211L66.8583 62.8311L66.9337 62.7298L66.9896 62.6145L67.0343 62.4795V62.142L66.9756 62.0098L66.9058 61.8945L66.8165 61.8074L66.6852 61.7174L66.5847 61.6752L66.4534 61.6161L66.3082 61.5571L66.149 61.4868L66.0457 61.4558L65.9312 61.4249L65.786 61.3799L65.6855 61.3546L65.5402 61.3096L65.395 61.2955L65.247 61.2364L65.1018 61.2224L64.9426 61.1802L64.8114 61.1493L64.6662 61.1043L64.5209 61.0733L64.3757 61.0311L64.2445 60.9861L64.0993 60.9552L63.9848 60.9102L63.7195 60.823L63.5743 60.764L63.429 60.7218L63.1386 60.6009L63.0074 60.5305L62.8621 60.4546L62.7616 60.3843L62.6276 60.3084L62.527 60.2381L62.3958 60.1621L62.2059 59.9709L62.1054 59.8837L61.9294 59.6784L61.854 59.5772L61.7982 59.4759L61.7088 59.3409L61.6669 59.2397L61.5329 58.8881L61.5077 58.7419L61.477 58.6097V58.4775L61.4463 58.3313V57.7322L61.477 57.4398L61.5077 57.3188L61.5329 57.1866L61.5776 57.0713L61.6083 56.9251L61.6669 56.8238L61.7228 56.6748L61.7814 56.5595L61.8373 56.4132L61.9127 56.312L62.0132 56.1967L62.0886 56.0758L62.2031 55.9745L62.2897 55.8733L62.379 55.7523L62.5103 55.6511L62.5996 55.5752L62.7141 55.488L62.9459 55.3417L63.0772 55.2658L63.3425 55.1336L63.457 55.0914L63.5882 55.0464L63.7334 54.9874L63.8786 54.9452L63.982 54.9142L64.1132 54.8833L64.2277 54.8524L64.359 54.8214L64.5042 54.7905L64.7946 54.7652L64.9287 54.7511L65.0432 54.6949ZM30.6441 54.7961H33.2775L33.3976 55.0633L33.4534 55.1786L33.4981 55.3249L33.5567 55.457L33.5986 55.5723L33.674 55.7045L33.7606 55.9717L33.836 56.1039L33.9505 56.3654L33.9812 56.4807L34.213 57.0095L34.2577 57.1416L34.3163 57.2626L34.3861 57.3948L34.4169 57.5269L34.4923 57.6732L34.5174 57.8054L34.6514 58.0669L34.7073 58.171L34.7659 58.3172L34.8106 58.4635L34.8525 58.5647L34.9279 58.7109L34.9726 58.8319L35.0284 58.9781L35.0731 59.0794L35.1318 59.2256L35.263 59.4872L35.3049 59.6193L35.3356 59.7543L35.3943 59.8865L35.4641 60.0018L35.5227 60.1481L35.5814 60.2802L35.6233 60.3956L35.7433 60.6627L35.7852 60.7949L35.8439 60.9271L35.8886 61.0593L35.9444 61.1746L36.0198 61.3096L36.0757 61.4418L36.1343 61.5571L36.165 61.7033L36.2795 61.9649L36.3382 62.0858L36.38 62.218L36.5001 62.4795L36.5699 62.6258L36.6007 62.7411L36.6761 62.8901L36.7012 62.9914L36.7598 63.1376L36.8352 63.2839L36.8911 63.3851L36.9358 63.5313L36.9944 63.6523L37.0363 63.7985L37.1117 63.8998L37.1983 64.1922L37.2569 64.2963L37.3128 64.4425L37.3882 64.5579L37.4468 64.7041L37.4719 64.8363L37.5166 64.9516L37.5753 65.0838L37.6451 65.2047H34.738L34.6682 65.0838L34.6235 64.9516L34.5649 64.8194L34.509 64.6732L34.4783 64.5579L34.3582 64.2963L34.3163 64.1754L34.2018 63.9138L34.1571 63.7985L34.0985 63.6523L34.0119 63.3851L33.9533 63.2698H29.9096L29.8538 63.402L29.8091 63.5229L29.7504 63.6691L29.6946 63.8013L29.6639 63.9166L29.6052 64.0629L29.5494 64.1782L29.5047 64.3104L29.4461 64.4313L29.3902 64.5775L29.3455 64.6788L29.2869 64.825L29.245 64.9713L29.1863 65.0753L29.1417 65.2216H26.2625L26.3044 65.0866L26.4245 64.825L26.4664 64.6788L26.511 64.5635L26.5864 64.4313L26.6423 64.2991L26.7009 64.1782L26.7317 64.046L26.7875 63.8998L26.8629 63.7845L26.9188 63.6523L27.0081 63.3851L27.1394 63.1235L27.1841 62.9914L27.2399 62.8761L27.2846 62.7411L27.4605 62.3473L27.5192 62.2011L27.5611 62.0858L27.6057 61.9536L27.6811 61.8327L27.737 61.6864L27.7817 61.5542L27.8264 61.4389L27.8822 61.2927L27.9576 61.1886L28.0023 61.0424L28.0581 60.9271L28.1028 60.7949L28.1615 60.6487L28.2313 60.5334L28.276 60.3871L28.3318 60.2831L28.3765 60.1368L28.4351 59.9906L28.491 59.8893L28.5496 59.7431L28.5943 59.6222L28.6502 59.4759L28.6948 59.3747L28.7702 59.2284L28.8261 59.0822L28.8847 58.9669L28.9155 58.8347L28.9713 58.6997L29.0467 58.5675L29.1026 58.4522L29.1333 58.306L29.1919 58.1738L29.2506 58.0528L29.3651 57.7913L29.407 57.676L29.527 57.3835L29.5829 57.2795L29.6415 57.1332L29.6862 57.0179L29.7281 56.8717L29.7867 56.7395L29.8622 56.6242L29.918 56.4779L29.9627 56.3739L30.0074 56.2276L30.0632 56.1123L30.1386 55.9801L30.1833 55.8339L30.2252 55.713L30.2838 55.5667L30.3397 55.4655L30.4151 55.3192L30.4598 55.173L30.5017 55.0717L30.5603 54.9255L30.6441 54.7961ZM38.8208 54.8721H41.6999L41.7893 54.9874L41.9345 55.2236L42.0043 55.3558L42.0797 55.457L42.1495 55.5892L42.2249 55.7045L42.2947 55.8395L42.3701 55.9548L42.44 56.0561L42.5154 56.1883L42.5852 56.3092L42.6885 56.4245L42.7304 56.5398L42.8198 56.672L42.8896 56.7929L42.9789 56.8942L43.0376 57.0263L43.1074 57.1416L43.1968 57.2626L43.2386 57.3779L43.342 57.5101L43.557 57.8616L43.6156 57.9769L43.7022 58.0922L43.7776 58.2075L43.8474 58.3425L44.068 58.6913L44.1379 58.8262L44.2133 58.9416L44.2998 58.8262L44.3585 58.6772L44.445 58.5759L44.5204 58.4438L44.5903 58.3425L44.6489 58.1963L44.7494 58.0922L44.8248 57.96L44.8835 57.8588L44.9533 57.7379L45.0427 57.6057L45.1125 57.5044L45.1879 57.3582L45.2577 57.2569L45.347 57.122L45.4029 57.0207L45.4783 56.8745L45.5481 56.7873L45.6235 56.6664L45.7101 56.5201L45.7855 56.4189L45.8413 56.2867L45.9307 56.1826L46.0005 56.0364L46.0759 55.9492L46.1625 55.8339L46.2379 55.6877L46.3077 55.5836L46.3831 55.4514L46.4529 55.3502L46.5283 55.2039L46.6149 55.0999L46.6735 54.9677L46.7489 54.8664H49.6728V65.3256H46.936V59.1722L46.8662 59.2762L46.7768 59.4225L46.707 59.5097L46.6177 59.625L46.5618 59.7712L46.4725 59.8753L46.4026 59.9765L46.3133 60.1228L46.1681 60.3281L46.0815 60.4434L46.0061 60.5896L45.9195 60.6937L45.8441 60.7949L45.7883 60.9412L45.6989 61.0424L45.6291 61.1465L45.5397 61.2927L45.4699 61.3939L45.3806 61.5092L45.3107 61.6414L45.2521 61.7455L45.1655 61.8608L45.0901 61.993L45.0036 62.0942L44.9142 62.2151L44.8583 62.3305L44.7829 62.4626L44.6964 62.5667L44.607 62.682L44.5512 62.8282L44.4478 62.9154L44.392 63.0307L44.3026 63.1798L44.2328 63.281H44.1742L44.0876 63.1489L44.0122 63.0279L43.9424 62.8957L43.867 62.7945L43.7804 62.6623L43.705 62.547L43.6184 62.4261L43.543 62.3108L43.4732 62.1786L43.3978 62.0773L43.2973 61.9423L43.2386 61.827L43.1521 61.6949L43.0767 61.5936L43.0069 61.4614L42.9175 61.3405L42.8477 61.1943L42.7583 61.093L42.6885 60.9608L42.6131 60.8399L42.5433 60.7077L42.4539 60.6065L42.3841 60.4743L42.2947 60.359L42.2389 60.2381L42.1495 60.1228L42.0797 59.9906L41.9904 59.8893L41.9205 59.7543L41.8312 59.639L41.7753 59.5068L41.672 59.4056L41.6161 59.2706L41.5268 59.1553V65.3228H38.8375V54.9649L38.8208 54.8721ZM51.7337 54.8721H59.9243V57.2316H54.4537V58.9162H59.3686V61.1436H54.4537V62.9295H59.9942V65.3031H51.7477V54.9621L51.7337 54.8721ZM31.9231 58.0782L31.8784 58.2103L31.8365 58.3313L31.7779 58.4775L31.7192 58.6097L31.6773 58.7419L31.5572 59.0034L31.5014 59.1497L31.4567 59.2706L31.412 59.4168L31.3562 59.5181L31.3115 59.6643L31.2529 59.8106L31.197 59.9146L31.1523 60.0609L31.0965 60.1762L31.0518 60.3224L30.9764 60.4546L30.9457 60.5699L30.8898 60.7162L30.8312 60.8512L30.7865 60.9665L30.7306 61.1127H33.1295L33.0736 60.9665L33.0289 60.8343L32.9144 60.5671L32.8698 60.4349L32.8111 60.3196L32.7692 60.1734L32.7106 60.0412L32.6659 59.909L32.6101 59.7881L32.5654 59.6559L32.5067 59.5097L32.4648 59.3943L32.3448 59.1328L32.3196 58.9978L32.261 58.8656L32.2023 58.7194L32.1604 58.6181L32.0404 58.3256L31.9985 58.1935L31.9231 58.0782ZM27.6504 77.6635H57.478L42.2529 82.7173L27.6504 77.6635Z" fill="white"/>
</g>
<defs>
<filter id="filter0_d_144_30" x="0" y="0" width="85" height="98" filterUnits="userSpaceOnUse" color-interpolation-filters="sRGB">
<feFlood flood-opacity="0" result="BackgroundImageFix"/>
<feColorMatrix in="SourceAlpha" type="matrix" values="0 0 0 0 0 0 0 0 0 0 0 0 0 0 0 0 0 0 127 0" result="hardAlpha"/>
<feOffset dy="4"/>
<feGaussianBlur stdDeviation="2"/>
<feComposite in2="hardAlpha" operator="out"/>
<feColorMatrix type="matrix" values="0 0 0 0 0 0 0 0 0 0 0 0 0 0 0 0 0 0 0.5 0"/>
<feBlend mode="normal" in2="BackgroundImageFix" result="effect1_dropShadow_144_30"/>
<feBlend mode="normal" in="SourceGraphic" in2="effect1_dropShadow_144_30" result="shape"/>
</filter>
</defs>
</svg>
