<svg width="56" height="50" viewBox="0 0 56 50" fill="none" xmlns="http://www.w3.org/2000/svg">
<g filter="url(#filter0_d_23_978)">
<path d="M45.9314 9.48457C44.584 10.0769 43.1569 10.4681 41.6958 10.6456C43.2359 9.72115 44.389 8.26995 44.9414 6.56069C43.4846 7.40557 41.899 8.00567 40.2479 8.33707C39.1375 7.15071 37.6667 6.36396 36.0636 6.09888C34.4605 5.8338 32.8147 6.10521 31.3815 6.871C29.9484 7.6368 28.8081 8.85416 28.1375 10.3342C27.4669 11.8143 27.3035 13.4743 27.6726 15.0567C21.538 14.7698 16.0998 11.8223 12.4626 7.36957C11.8005 8.49556 11.4543 9.77923 11.4602 11.0854C11.4593 12.2997 11.7583 13.4954 12.3306 14.5664C12.9029 15.6374 13.7308 16.5505 14.7407 17.2246C13.5703 17.1892 12.4254 16.874 11.4017 16.3054V16.3943C11.4014 18.0987 11.9904 19.7508 13.0688 21.0706C14.1473 22.3904 15.6489 23.2967 17.3193 23.6359C16.6865 23.805 16.0346 23.8916 15.3798 23.8936C14.9061 23.8936 14.4539 23.8474 14.0028 23.7642C14.4781 25.2309 15.3989 26.5129 16.6369 27.4318C17.875 28.3506 19.3688 28.8606 20.9102 28.8908C18.2985 30.9362 15.0758 32.0458 11.7584 32.0419C11.1708 32.0443 10.5836 32.0112 10 31.9429C13.3841 34.1113 17.3197 35.2624 21.3389 35.2594C34.9142 35.2594 42.3325 24.0151 42.3325 14.2771C42.3325 13.9666 42.3325 13.6504 42.3089 13.3332C43.76 12.2932 45.0106 10.9988 46 9.51269L45.9314 9.48457Z" fill="#FAFAFA"/>
</g>
<defs>
<filter id="filter0_d_23_978" x="0" y="0" width="56" height="49.2595" filterUnits="userSpaceOnUse" color-interpolation-filters="sRGB">
<feFlood flood-opacity="0" result="BackgroundImageFix"/>
<feColorMatrix in="SourceAlpha" type="matrix" values="0 0 0 0 0 0 0 0 0 0 0 0 0 0 0 0 0 0 127 0" result="hardAlpha"/>
<feOffset dy="4"/>
<feGaussianBlur stdDeviation="5"/>
<feComposite in2="hardAlpha" operator="out"/>
<feColorMatrix type="matrix" values="0 0 0 0 0 0 0 0 0 0 0 0 0 0 0 0 0 0 0.8 0"/>
<feBlend mode="normal" in2="BackgroundImageFix" result="effect1_dropShadow_23_978"/>
<feBlend mode="normal" in="SourceGraphic" in2="effect1_dropShadow_23_978" result="shape"/>
</filter>
</defs>
</svg>
